<?xml version="1.0" encoding="UTF-8" standalone="no"?>
<!DOCTYPE svg PUBLIC "-//W3C//DTD SVG 1.1//EN"
 "http://www.w3.org/Graphics/SVG/1.1/DTD/svg11.dtd">
<!-- Generated by graphviz version 2.40.1 (20161225.0304)
 -->
<!-- Title: G Pages: 1 -->
<svg width="299pt" height="468pt"
 viewBox="0.00 0.00 299.00 468.00" xmlns="http://www.w3.org/2000/svg" xmlns:xlink="http://www.w3.org/1999/xlink">
<g id="graph0" class="graph" transform="scale(1 1) rotate(0) translate(4 464)">
<title>G</title>
<polygon fill="#ffffff" stroke="transparent" points="-4,4 -4,-464 295,-464 295,4 -4,4"/>
<!-- A0 -->
<g id="node1" class="node">
<title>A0</title>
<polygon fill="none" stroke="#000000" points="160.5,-270 160.5,-302 241.5,-302 241.5,-270 160.5,-270"/>
<text text-anchor="start" x="177.519" y="-283" font-family="Helvetica,sans-Serif" font-size="10.00" fill="#000000">+A:Person</text>
<polygon fill="none" stroke="#000000" points="160.5,-202 160.5,-270 241.5,-270 241.5,-202 160.5,-202"/>
<text text-anchor="start" x="171.9655" y="-251" font-family="Helvetica,sans-Serif" font-size="10.00" fill="#000000">+name:string</text>
<text text-anchor="start" x="183.074" y="-239" font-family="Helvetica,sans-Serif" font-size="10.00" fill="#000000">+age:int</text>
<text text-anchor="start" x="172.526" y="-227" font-family="Helvetica,sans-Serif" font-size="10.00" fill="#000000">+email:string</text>
<text text-anchor="start" x="172.941" y="-215" font-family="Helvetica,sans-Serif" font-size="10.00" fill="#000000">&#45;licenseId:int</text>
<polygon fill="none" stroke="#000000" points="160.5,-158 160.5,-202 241.5,-202 241.5,-158 160.5,-158"/>
<text text-anchor="start" x="170.016" y="-183" font-family="Helvetica,sans-Serif" font-size="10.00" fill="#000000">+LicenseId:int</text>
<text text-anchor="start" x="179.1985" y="-171" font-family="Helvetica,sans-Serif" font-size="10.00" fill="#000000">+Work():v</text>
</g>
<!-- A1 -->
<g id="node2" class="node">
<title>A1</title>
<polygon fill="none" stroke="#000000" points="62.5,-76 62.5,-108 137.5,-108 137.5,-76 62.5,-76"/>
<text text-anchor="start" x="79.849" y="-89" font-family="Helvetica,sans-Serif" font-size="10.00" fill="#000000">+Student</text>
<polygon fill="none" stroke="#000000" points="62.5,-44 62.5,-76 137.5,-76 137.5,-44 62.5,-44"/>
<text text-anchor="start" x="72.3455" y="-57" font-family="Helvetica,sans-Serif" font-size="10.00" fill="#000000">+gpa:double</text>
<polygon fill="none" stroke="#000000" points="62.5,0 62.5,-44 137.5,-44 137.5,0 62.5,0"/>
<text text-anchor="start" x="86.248" y="-25" font-family="Helvetica,sans-Serif" font-size="10.00" fill="#000000">+Eat()</text>
<text text-anchor="start" x="82.0835" y="-13" font-family="Helvetica,sans-Serif" font-size="10.00" fill="#000000">+Party()</text>
</g>
<!-- A0&#45;&gt;A1 -->
<g id="edge1" class="edge">
<title>A0&#45;&gt;A1</title>
<path fill="none" stroke="#000000" stroke-dasharray="5,2" d="M154.7876,-150.3427C146.5997,-136.0746 138.2424,-121.5114 130.5871,-108.1716"/>
<polygon fill="#000000" stroke="#000000" points="159.856,-159.1748 150.9757,-152.7413 157.3673,-154.8382 154.8787,-150.5015 154.8787,-150.5015 154.8787,-150.5015 157.3673,-154.8382 158.7817,-148.2617 159.856,-159.1748 159.856,-159.1748"/>
</g>
<!-- A2 -->
<g id="node3" class="node">
<title>A2</title>
<polygon fill="none" stroke="#000000" points="155.5,-76 155.5,-108 246.5,-108 246.5,-76 155.5,-76"/>
<text text-anchor="start" x="179.7435" y="-89" font-family="Helvetica,sans-Serif" font-size="10.00" fill="#000000">+Teacher</text>
<polygon fill="none" stroke="#000000" points="155.5,-44 155.5,-76 246.5,-76 246.5,-44 155.5,-44"/>
<text text-anchor="start" x="165.0215" y="-57" font-family="Helvetica,sans-Serif" font-size="10.00" fill="#000000">+specialty:string</text>
<polygon fill="none" stroke="#000000" points="155.5,0 155.5,-44 246.5,-44 246.5,0 155.5,0"/>
<text text-anchor="start" x="183.088" y="-25" font-family="Helvetica,sans-Serif" font-size="10.00" fill="#000000">+Work()</text>
<text text-anchor="start" x="187.248" y="-13" font-family="Helvetica,sans-Serif" font-size="10.00" fill="#000000">+Eat()</text>
</g>
<!-- A0&#45;&gt;A2 -->
<g id="edge2" class="edge">
<title>A0&#45;&gt;A2</title>
<path fill="none" stroke="#000000" stroke-dasharray="5,2" d="M200.5,-147.7066C200.5,-134.2963 200.5,-120.7085 200.5,-108.1959"/>
<polygon fill="#000000" stroke="#000000" points="200.5,-157.9062 196.0001,-147.9062 200.5,-152.9062 200.5001,-147.9062 200.5001,-147.9062 200.5001,-147.9062 200.5,-152.9062 205.0001,-147.9063 200.5,-157.9062 200.5,-157.9062"/>
</g>
<!-- A3 -->
<g id="node4" class="node">
<title>A3</title>
<polygon fill="none" stroke="#000000" points="110.5,-428 110.5,-460 291.5,-460 291.5,-428 110.5,-428"/>
<text text-anchor="start" x="182.5185" y="-441" font-family="Helvetica,sans-Serif" font-size="10.00" fill="#000000">+People</text>
<polygon fill="none" stroke="#000000" points="110.5,-396 110.5,-428 291.5,-428 291.5,-396 110.5,-396"/>
<text text-anchor="start" x="120.1455" y="-409" font-family="Helvetica,sans-Serif" font-size="10.00" fill="#000000">sortedList:SortedList&lt;string,Person&gt;</text>
<polygon fill="none" stroke="#000000" points="110.5,-352 110.5,-396 291.5,-396 291.5,-352 110.5,-352"/>
<text text-anchor="start" x="176.97" y="-377" font-family="Helvetica,sans-Serif" font-size="10.00" fill="#000000">+this:email</text>
<text text-anchor="start" x="150.5845" y="-365" font-family="Helvetica,sans-Serif" font-size="10.00" fill="#000000">+Remove(email:string)</text>
</g>
<!-- A3&#45;&gt;A0 -->
<g id="edge6" class="edge">
<title>A3&#45;&gt;A0</title>
<path fill="none" stroke="#000000" d="M200.5,-351.7581C200.5,-336.1028 200.5,-318.7674 200.5,-302.2039"/>
<text text-anchor="middle" x="208.9524" y="-317.3301" font-family="Helvetica,sans-Serif" font-size="10.00" fill="#000000">0..*</text>
<text text-anchor="middle" x="192.0476" y="-330.6319" font-family="Helvetica,sans-Serif" font-size="10.00" fill="#000000">1</text>
</g>
<!-- A4 -->
<g id="node5" class="node">
<title>A4</title>
<polygon fill="none" stroke="#000000" points="81.5,-230 81.5,-262 141.5,-262 141.5,-230 81.5,-230"/>
<text text-anchor="start" x="91.3535" y="-243" font-family="Helvetica,sans-Serif" font-size="10.00" fill="#000000">+IPerson</text>
<polygon fill="none" stroke="#000000" points="81.5,-198 81.5,-230 141.5,-230 141.5,-198 81.5,-198"/>
<text text-anchor="start" x="100.6675" y="-211" font-family="Helvetica,sans-Serif" font-size="10.00" fill="#000000">Eat()</text>
</g>
<!-- A4&#45;&gt;A1 -->
<g id="edge3" class="edge">
<title>A4&#45;&gt;A1</title>
<path fill="none" stroke="#000000" d="M108.6073,-187.5739C106.9818,-163.7323 104.9359,-133.7266 103.1952,-108.1969"/>
<polygon fill="none" stroke="#000000" points="105.1268,-187.9802 109.299,-197.7189 112.1106,-187.5039 105.1268,-187.9802"/>
</g>
<!-- A4&#45;&gt;A2 -->
<g id="edge5" class="edge">
<title>A4&#45;&gt;A2</title>
<path fill="none" stroke="#000000" d="M132.4692,-188.5328C144.6017,-164.5405 160.01,-134.0701 173.0936,-108.1969"/>
<polygon fill="none" stroke="#000000" points="129.2133,-187.2155 127.824,-197.7189 135.46,-190.3744 129.2133,-187.2155"/>
</g>
<!-- A5 -->
<g id="node6" class="node">
<title>A5</title>
<polygon fill="none" stroke="#000000" points=".5,-230 .5,-262 63.5,-262 63.5,-230 .5,-230"/>
<text text-anchor="start" x="10.4595" y="-243" font-family="Helvetica,sans-Serif" font-size="10.00" fill="#000000">+IStudent</text>
<polygon fill="none" stroke="#000000" points=".5,-198 .5,-230 63.5,-230 63.5,-198 .5,-198"/>
<text text-anchor="start" x="17.003" y="-211" font-family="Helvetica,sans-Serif" font-size="10.00" fill="#000000">Party()</text>
</g>
<!-- A5&#45;&gt;A1 -->
<g id="edge4" class="edge">
<title>A5&#45;&gt;A1</title>
<path fill="none" stroke="#000000" d="M47.6446,-188.2139C56.8953,-164.2709 68.6081,-133.9556 78.5603,-108.1969"/>
<polygon fill="none" stroke="#000000" points="44.3115,-187.1295 43.9722,-197.7189 50.8411,-189.6523 44.3115,-187.1295"/>
</g>
</g>
</svg>
