<?xml version="1.0" encoding="UTF-8" standalone="no"?>
<!DOCTYPE svg PUBLIC "-//W3C//DTD SVG 1.1//EN"
 "http://www.w3.org/Graphics/SVG/1.1/DTD/svg11.dtd">
<!-- Generated by graphviz version 2.40.1 (20161225.0304)
 -->
<!-- Title: G Pages: 1 -->
<svg width="107pt" height="148pt"
 viewBox="0.00 0.00 107.00 148.00" xmlns="http://www.w3.org/2000/svg" xmlns:xlink="http://www.w3.org/1999/xlink">
<g id="graph0" class="graph" transform="scale(1 1) rotate(0) translate(4 144)">
<title>G</title>
<polygon fill="#ffffff" stroke="transparent" points="-4,4 -4,-144 103,-144 103,4 -4,4"/>
<!-- A0 -->
<g id="node1" class="node">
<title>A0</title>
<polygon fill="none" stroke="#000000" points=".5,-108 .5,-140 99.5,-140 99.5,-108 .5,-108"/>
<text text-anchor="start" x="16.671" y="-121" font-family="Helvetica,sans-Serif" font-size="10.00" fill="#000000">&#45;FactorialClass</text>
<polygon fill="none" stroke="#000000" points=".5,-76 .5,-108 99.5,-108 99.5,-76 .5,-76"/>
<text text-anchor="start" x="23.4655" y="-89" font-family="Helvetica,sans-Serif" font-size="10.00" fill="#000000">+nResult:int</text>
<polygon fill="none" stroke="#000000" points=".5,-44 .5,-76 99.5,-76 99.5,-44 .5,-44"/>
<text text-anchor="start" x="10.0045" y="-57" font-family="Helvetica,sans-Serif" font-size="10.00" fill="#000000">&#45;Factorial(v:int):int</text>
<polygon fill="none" stroke="#000000" points=".5,0 .5,-44 99.5,-44 99.5,0 .5,0"/>
<text text-anchor="start" x="43.7515" y="-25" font-family="Helvetica,sans-Serif" font-size="10.00" fill="#000000">+()</text>
<text text-anchor="start" x="35.974" y="-13" font-family="Helvetica,sans-Serif" font-size="10.00" fill="#000000">+(i:int)</text>
</g>
</g>
</svg>
